<?xml version="1.0" encoding="UTF-8"?><svg id="company" xmlns="http://www.w3.org/2000/svg" viewBox="0 0 270 270"><defs><style>.cls-1{fill:#4f46e5;}</style></defs><path class="cls-1" d="M11.371,268.934c-6.27,0-11.371-5.101-11.371-11.371v-10.756c.069-4.906,3.267-9.199,7.959-10.673l.744-.234v-14.769c0-2.328,1.894-4.222,4.222-4.222h5.789v-72.38h-5.788c-2.328,0-4.222-1.894-4.222-4.222v-19.377l-.676-.264c-1.782-.698-3.372-1.845-4.598-3.317-1.942-2.335-2.859-5.287-2.581-8.311.278-3.025,1.717-5.761,4.052-7.703L127.922,3.489c1.989-1.561,4.482-2.422,7.017-2.422s5.028.862,7.022,2.427l123.033,97.917c1.457,1.212,2.601,2.8,3.299,4.583,2.285,5.839-.606,12.449-6.444,14.734l-.676.265v19.377c0,2.328-1.894,4.222-4.222,4.222h-5.726v72.318h5.726c2.328,0,4.222,1.893,4.222,4.221v14.778l.755.228c4.745,1.438,7.989,5.733,8.073,10.689v10.738c0,6.27-5.101,11.371-11.371,11.371H11.371ZM11.199,244.067c-1.462.046-2.652,1.193-2.753,2.667l-.003,10.828c.052,1.53,1.268,2.753,2.768,2.803h247.418c1.553.001,2.812-1.215,2.865-2.767v-10.73c-.053-1.58-1.311-2.804-2.864-2.804H11.223l-.024.002ZM203.912,235.559l48.817.064v-10.21h-48.817v10.145ZM110.53,235.559l48.817.064v-10.21h-48.817v10.145ZM17.148,235.559l48.817.064v-10.21H17.148v10.145ZM157.842,216.909h5.726c2.328,0,4.222,1.893,4.222,4.221v14.43h27.679s0-14.429,0-14.429c0-2.328,1.894-4.222,4.222-4.222h5.726v-72.505h-5.726c-2.328,0-4.222-1.893-4.222-4.221v-18.782h-27.679v18.968c0,2.328-1.894,4.222-4.222,4.222h-5.726v72.318ZM64.46,216.909h5.726c2.328,0,4.222,1.893,4.222,4.221v14.43h27.679s0-14.429,0-14.429c0-2.328,1.894-4.222,4.222-4.222h5.726v-72.505h-5.726c-2.328,0-4.222-1.893-4.222-4.221v-18.782h-27.679v18.968c0,2.328-1.894,4.222-4.222,4.222h-5.726v72.318ZM120.477,216.909h28.922s0-72.318,0-72.318h-28.922v72.318ZM27.157,216.909h28.86v-72.318h-28.86v72.318ZM213.86,216.909h28.922v-72.318h-28.922v72.318ZM203.912,136.085h48.817v-14.56h-48.817v14.56ZM110.53,136.085h48.817v-14.56h-48.817v14.56ZM17.148,136.085h48.817v-14.56H17.148v14.56ZM10.321,107.917c-1.036.669-1.485,1.991-1.069,3.154.345,1.12,1.395,1.888,2.605,1.888l.11-.002h246.044c.905,0,1.702-.379,2.245-1.069.956-1.215.745-2.981-.47-3.937L136.688,10.033c-.518-.393-1.12-.597-1.75-.597s-1.228.201-1.73.581L10.321,107.917Z"/></svg>