<?xml version="1.0" encoding="UTF-8"?><svg id="company" xmlns="http://www.w3.org/2000/svg" viewBox="0 0 270 270"><defs><style>.cls-1{fill:#2563eb;}</style></defs><path class="cls-1" d="M124.98,270c-1.092,0-2.12-.427-2.894-1.202-.774-.774-1.2-1.802-1.2-2.893v-89.54h-12.603c-1.017-.016-1.994-.411-2.743-1.112-.804-.751-1.267-1.771-1.305-2.874-.037-1.102.356-2.153,1.106-2.956l26.708-27.733c.783-.767,1.833-1.196,2.948-1.196s2.168.43,2.964,1.211l26.7,27.727c1.142,1.185,1.463,2.929.82,4.442-.644,1.512-2.123,2.491-3.768,2.491h-12.603v89.54c0,2.257-1.837,4.094-4.094,4.094h-20.038ZM117.911,168.177h7.069c2.258,0,4.095,1.838,4.094,4.094v89.541h11.85v-89.541c0-2.257,1.837-4.094,4.094-4.094h7.069l-17.087-17.743-17.088,17.743Z"/><path class="cls-1" d="M75.999,270c-1.093,0-2.122-.425-2.896-1.199-.772-.773-1.198-1.802-1.197-2.895v-57.174h-12.603c-1.017-.015-1.994-.409-2.743-1.11-1.662-1.554-1.751-4.169-.198-5.83l26.708-27.734c.783-.767,1.833-1.196,2.949-1.196s2.168.43,2.964,1.211l26.7,27.726c.694.743,1.088,1.72,1.103,2.747.017,1.101-.396,2.143-1.164,2.934-.767.792-1.796,1.236-2.898,1.252h-12.592v57.174c0,2.257-1.837,4.094-4.094,4.094h-20.038ZM68.931,200.544h7.069c2.258,0,4.095,1.838,4.094,4.094v57.174h11.85v-57.174c0-2.257,1.837-4.094,4.094-4.094h7.069l-17.088-17.744-17.088,17.744Z"/><path class="cls-1" d="M27.019,270c-2.258,0-4.094-1.838-4.094-4.094v-24.807h-12.602c-1.016-.016-1.994-.41-2.744-1.111-1.661-1.553-1.75-4.169-.198-5.831l26.708-27.733c.783-.767,1.833-1.196,2.949-1.196s2.168.43,2.964,1.211l26.7,27.727c.694.743,1.088,1.72,1.103,2.747.017,1.102-.396,2.144-1.164,2.934-.767.791-1.797,1.236-2.898,1.253h-12.592v24.807c0,2.257-1.837,4.094-4.094,4.094h-20.038ZM19.949,232.91h7.069c2.258.002,4.095,1.839,4.094,4.094v24.808h11.849v-24.808c0-2.257,1.837-4.094,4.094-4.094h7.069l-17.088-17.743-17.088,17.743Z"/><path class="cls-1" d="M222.942,270c-2.258,0-4.095-1.838-4.094-4.094v-24.807h-12.603c-1.067,0-2.077-.407-2.843-1.146-1.624-1.566-1.671-4.163-.106-5.787l26.717-27.741c.783-.767,1.833-1.196,2.948-1.196s2.168.43,2.964,1.211l26.7,27.727c.694.743,1.088,1.72,1.102,2.746.017,1.101-.397,2.143-1.165,2.934-.768.792-1.797,1.237-2.896,1.254h-12.592v24.807c0,2.257-1.837,4.094-4.094,4.094h-20.037ZM215.873,232.91h7.069c2.258.002,4.095,1.839,4.094,4.094v24.808h11.849v-24.808c0-2.257,1.837-4.094,4.094-4.094h7.069l-17.088-17.743-17.088,17.743Z"/><path class="cls-1" d="M173.961,270c-2.258,0-4.095-1.838-4.094-4.094v-57.174h-12.603c-1.017-.015-1.993-.409-2.742-1.111-1.662-1.552-1.752-4.167-.199-5.83l26.708-27.733c.783-.767,1.833-1.196,2.948-1.196s2.168.43,2.964,1.211l26.7,27.726c1.141,1.186,1.463,2.931.82,4.444-.644,1.511-2.124,2.489-3.769,2.489h-12.603v57.174c0,2.257-1.837,4.094-4.094,4.094h-20.037ZM166.892,200.544h7.069c2.258,0,4.095,1.838,4.094,4.094v57.174h11.85v-57.174c0-2.257,1.837-4.094,4.093-4.094h7.07l-17.088-17.744-17.087,17.744Z"/><path class="cls-1" d="M150.469,138.061c-1.841,0-3.475-1.241-3.972-3.017l-8.265-31.021-.872.569c-.693.449-1.496.687-2.32.687s-1.628-.238-2.322-.688l-.871-.568-8.268,31.028c-.191.683-.562,1.312-1.07,1.815-.779.768-1.809,1.192-2.902,1.192-1.112,0-2.154-.435-2.936-1.226l-9.098-9.426-11.758,5.731c-.535.252-1.141.386-1.745.386-.341,0-.678-.041-1.001-.124-1.069-.268-1.97-.936-2.538-1.884-.568-.947-.733-2.056-.466-3.124l11.142-41.698-10.342-6.268c-1.202-.73-1.938-2.005-1.969-3.411l-.268-11.873-5.731-10.534c-.673-1.23-.673-2.698,0-3.927l5.7-10.419.299-11.988c.031-1.41.767-2.685,1.969-3.412l10.152-6.158,6.242-10.231c.731-1.205,2.004-1.942,3.409-1.972l11.871-.269,10.535-5.727C133.676.174,134.355,0,135.039,0s1.364.174,1.964.505l10.42,5.697,11.989.3c1.406.03,2.679.767,3.409,1.97l6.158,10.152,10.234,6.238c1.202.73,1.938,2.005,1.969,3.41l.272,11.875,5.727,10.534c.674,1.229.674,2.697,0,3.927l-5.697,10.419-.302,11.988c-.03,1.408-.766,2.68-1.966,3.407l-10.344,6.278,11.145,41.705c.253.951.155,1.962-.276,2.848-.693,1.419-2.104,2.301-3.684,2.301-.622,0-1.225-.14-1.791-.417l-11.759-5.731-9.105,9.431c-.498.505-1.128.875-1.818,1.068-.365.102-.74.154-1.115.154ZM108.325,118.294c2.211,0,4.282,2.342,6.111,4.408.782.882,1.512,1.707,2.22,2.318l.911.789,6.862-25.753-1.773-.971-11.989-.293c-1.031-.025-2.007-.433-2.748-1.149l-.921-.891-6.705,25.091,6.364-3.102c.568-.299,1.124-.447,1.669-.447ZM162.16,97.643c-.742.717-1.719,1.124-2.751,1.15l-11.865.263-1.897.995,6.863,25.757.911-.785c.712-.611,1.445-1.44,2.221-2.318,1.834-2.074,3.901-4.411,6.108-4.411.546,0,1.102.147,1.65.437l6.387,3.114-6.705-25.091-.922.89ZM135.066,96.543l.374-.235c3.475-2.186,7.182-4.013,11.021-5.432l10.52-.22,5.546-9.141c.406-.988,4.921-3.59,7.09-4.841,1.48-.854,2.648-1.528,3.151-1.921l.303-.238-.015-.384c-.157-4.09.113-8.211.802-12.25l5.079-9.261-.236-.375c-2.181-3.465-4.007-7.172-5.428-11.021l-.224-10.471-.289-.22c-.463-.357-1.51-.962-2.96-1.798-2.255-1.301-6.872-3.965-7.213-4.837l-5.618-9.282-.442.015c-.767.031-1.531.046-2.294.046-3.332,0-6.683-.286-9.961-.85l-9.26-5.077-.374.234c-3.466,2.181-7.174,4.008-11.022,5.432l-10.467.223-.22.288c-.364.471-1.009,1.588-1.824,3.001-1.283,2.22-3.946,6.833-4.816,7.174l-9.286,5.616.019.446c.157,4.095-.112,8.217-.801,12.248l-5.066,9.235,5.094,9.311c.666,4.007.926,8.103.772,12.174l-.015.388.308.237c.468.361,1.518.967,2.973,1.806,2.247,1.296,6.863,3.958,7.203,4.83l5.619,9.288.442-.015c.779-.032,1.555-.047,2.329-.047,3.314,0,6.653.284,9.926.846l9.259,5.078Z"/><path class="cls-1" d="M135.04,82.454c-16.418-.021-29.791-13.392-29.809-29.81.718-20.317,15.956-29.579,29.809-29.579s29.087,9.265,29.809,29.606c-.019,16.392-13.392,29.761-29.809,29.783h0ZM135.032,31.024c-11.699.112-21.306,9.719-21.417,21.416-.054,5.774,2.144,11.225,6.188,15.348s9.452,6.423,15.228,6.477c11.696-.119,21.3-9.72,21.418-21.403.058-5.773-2.136-11.225-6.179-15.351-4.041-4.126-9.448-6.43-15.223-6.488h-.015Z"/></svg>